<svg xmlns="http://www.w3.org/2000/svg" xmlns:xlink="http://www.w3.org/1999/xlink" xml:space="preserve" version="1.1" style="shape-rendering:geometricPrecision;text-rendering:geometricPrecision;image-rendering:optimizeQuality;" viewBox="0 0 220 412.5" x="0px" y="0px" fill-rule="evenodd" clip-rule="evenodd"><defs><style type="text/css">
   
    .fil1 {fill:white}
    .fil0 {fill:white;fill-rule:nonzero}
   
  </style></defs><g><path class="fil0" d="M20 68l2 5c19,-31 63,-43 82,-39 30,8 64,-3 75,-34l41 98c-11,36 -46,36 -77,34 -30,-3 -63,13 -79,40l64 153 -12 5 -108 -257 12 -5zm168 -39c-2,7 -6,13 -12,18l0 0 10 24c6,-5 10,-11 12,-18l-10 -24zm19 43c-2,7 -7,13 -13,18l11 24c6,-4 10,-11 11,-19l-9 -23zm-182 7l7 19c4,-7 9,-12 15,-17l-8 -18c-6,4 -11,10 -14,16zm18 43l8 20c4,-7 9,-13 15,-18l-9 -19c-5,5 -10,11 -14,17zm23 2l10 23c5,-5 12,-9 18,-12l-10 -23c7,-3 14,-6 21,-7l-8 -20c-7,2 -14,5 -21,8l-11 -24c-6,3 -12,7 -18,12l10 24c6,-5 12,-9 19,-12l8 19c-6,4 -13,8 -18,12zm39 -19l10 23c8,-3 16,-3 22,-3l-9 -23c2,0 4,1 5,1 7,2 14,2 20,2l-8 -19 0 0c-7,0 -13,-1 -20,-2 -2,-1 -4,-1 -6,-1l9 19c-7,0 -15,1 -23,3zm14 -22l-10 -25c2,1 4,1 6,1 6,2 13,2 19,2l-8 -18c-6,0 -13,-1 -19,-2 -2,-1 -4,-1 -7,-1l9 18c-7,0 -15,1 -23,3l11 24c8,-2 16,-2 22,-2zm34 22l10 22c8,0 15,-1 22,-3l-10 -23c7,-2 14,-6 19,-11l-8 -19c-5,5 -12,8 -19,11l8 19c-7,2 -14,4 -22,4zm14 -23l-11 -24c-7,2 -14,3 -22,3l11 25 0 0c7,0 15,-2 22,-4zm-102 -13c7,-4 14,-6 21,-8l-8 -19c-7,2 -14,5 -21,8l8 19zm91 -11c7,-3 14,-7 20,-11l-8 -19c-6,5 -13,9 -20,11l8 19z"/><path class="fil1" d="M6 51c4,-2 10,0 11,5 1,2 1,4 1,6l-12 5c-3,0 -4,-2 -5,-4 -2,-5 0,-10 5,-12z"/></g><text x="0" y="345" fill="#000000" font-size="5px" font-weight="bold" font-family="'Helvetica Neue', Helvetica, Arial-Unicode, Arial, Sans-serif">Created by Kangrif</text><text x="0" y="350" fill="#000000" font-size="5px" font-weight="bold" font-family="'Helvetica Neue', Helvetica, Arial-Unicode, Arial, Sans-serif">from the Noun Project</text></svg>